<?xml version="1.0" encoding="UTF-8"?>
<!DOCTYPE svg PUBLIC "-//W3C//DTD SVG 1.0//EN" "http://www.w3.org/TR/2001/REC-SVG-20010904/DTD/svg10.dtd">
<svg xmlns="http://www.w3.org/2000/svg" xml:space="preserve" width="0.70274cm" height="0.69267cm" version="1.0" style="shape-rendering:geometricPrecision; text-rendering:geometricPrecision; image-rendering:optimizeQuality; fill-rule:evenodd; clip-rule:evenodd"
viewBox="0 0 7.62 7.51"
 xmlns:xlink="http://www.w3.org/1999/xlink">
 <defs>
  <style type="text/css">
   <![CDATA[
    .fil0 {fill:#FF2056;fill-rule:nonzero}
   ]]>
  </style>
 </defs>
 <g id="Layer_x0020_1">
  <metadata id="CorelCorpID_0Corel-Layer"/>
  <path class="fil0" d="M2.96 2.69l1.74 0c0.02,0 0.03,0.01 0.03,0.03l0 2.1c0,0.02 -0.01,0.03 -0.03,0.03l-1.74 0c-0.02,0 -0.03,-0.01 -0.03,-0.03l0 -2.1c0,-0.02 0.01,-0.03 0.03,-0.03zm-2.93 4.81c-0.02,0 -0.02,-0.01 -0.02,-0.02l0 -7.47c0,-0 0,-0.01 0,-0.01 0,-0.01 0.01,-0.01 0.02,-0.01l7.57 0c0.01,0 0.02,0 0.02,0.01 0,0 0,0.01 0,0.01l0 7.47c0,0.01 -0.01,0.02 -0.02,0.02l-7.57 0zm1.91 -1.75l3.74 0 0 -4 -3.74 0 0 4z"/>
 </g>
</svg>
