<?xml version="1.0" encoding="UTF-8"?>
<!DOCTYPE svg PUBLIC "-//W3C//DTD SVG 1.0//EN" "http://www.w3.org/TR/2001/REC-SVG-20010904/DTD/svg10.dtd">
<svg xmlns="http://www.w3.org/2000/svg" xml:space="preserve" width="3.66795cm" height="0.69267cm" version="1.0" style="shape-rendering:geometricPrecision; text-rendering:geometricPrecision; image-rendering:optimizeQuality; fill-rule:evenodd; clip-rule:evenodd"
viewBox="0 0 194.12 36.66"
 xmlns:xlink="http://www.w3.org/1999/xlink">
 <defs>
  <style type="text/css">
   <![CDATA[
    .fil0 {fill:#FF2056;fill-rule:nonzero}
   ]]>
  </style>
 </defs>
 <g id="Layer_x0020_1">
  <metadata id="CorelCorpID_0Corel-Layer"/>
  <path class="fil0" d="M194.03 0c0.06,0 0.09,0.05 0.09,0.09l0 36.48c0,0.06 -0.03,0.09 -0.09,0.09l-9.22 0c-0.1,0 -0.15,-0.18 -0.15,-0.55l0 -27.55 -10.22 0 0 -8.56 19.58 0zm-21.71 22.61l-15.04 0 0 -8.56 15.04 0 0 8.56zm-158.47 -2.62l0 -11.34 -4.39 0 0 27.88c0,0.09 -0.05,0.13 -0.13,0.13l-9.17 0c-0.1,0 -0.15,-0.04 -0.15,-0.13l0 -36.39c0,-0.09 0.07,-0.13 0.16,-0.13l36.9 0c0.09,0 0.13,0.06 0.13,0.13l0 36.39c0,0.09 -0.05,0.13 -0.13,0.13l-9.19 0c-0.09,0 -0.13,-0.04 -0.13,-0.13l0 -27.88 -4.44 0 0 11.34 -9.45 0zm34.79 -19.98c0.09,0 0.13,0.06 0.13,0.13l0 16.54 18.28 0 0 -16.54c0,-0.09 0.06,-0.13 0.13,-0.13l9.19 0c0.09,0 0.13,0.06 0.13,0.13l0 25.01c0,0.09 -0.05,0.13 -0.16,0.13l-13.73 0 0 11.25c0,0.09 -0.05,0.13 -0.13,0.13l-9.14 0c-0.09,0 -0.13,-0.04 -0.13,-0.13l0 -11.25 -13.76 0c-0.09,0 -0.13,-0.04 -0.13,-0.13l0 -25.01c0,-0.09 0.06,-0.13 0.13,-0.13l9.19 0zm30 0.13c0,-0.09 0.07,-0.13 0.16,-0.13l36.91 0c0.09,0 0.13,0.06 0.13,0.13l0 8.29c0,0.09 -0.05,0.13 -0.13,0.13l-27.56 0 0 19.54 27.56 0c0.09,0.01 0.13,0.06 0.13,0.13l0 8.29c0,0.09 -0.04,0.13 -0.13,0.13l-36.91 0c-0.1,0 -0.16,-0.04 -0.16,-0.13l0 -36.39zm48.78 27.97l18.28 0 0 -19.54 -18.28 0 0 19.54zm-9.34 8.56c-0.07,0 -0.11,-0.03 -0.11,-0.09l0 -36.48c0,-0.01 0.01,-0.03 0.02,-0.04 0.02,-0.03 0.04,-0.04 0.09,-0.04l36.97 0c0.04,0 0.07,0.01 0.09,0.04 0.01,0.01 0.02,0.03 0.02,0.04l0 36.48c0,0.06 -0.04,0.09 -0.11,0.09l-36.97 0zm14.33 -23.51l8.49 0c0.11,0 0.16,0.06 0.16,0.13l0 10.27c0,0.09 -0.06,0.13 -0.16,0.13l-8.49 0c-0.1,0 -0.16,-0.04 -0.16,-0.13l0 -10.27c0,-0.09 0.07,-0.13 0.16,-0.13z"/>
 </g>
</svg>
